solid exported
	facet normal 1 0 0
		outer loop
			vertex 10 10.5 10
			vertex 10 9.5 10
			vertex 10 10.5 0
		endloop
	endfacet
	facet normal 1 0 0
		outer loop
			vertex 10 9.5 10
			vertex 10 9.5 0
			vertex 10 10.5 0
		endloop
	endfacet
	facet normal -1 0 0
		outer loop
			vertex 0 10.5 0
			vertex 0 9.5 0
			vertex 0 10.5 10
		endloop
	endfacet
	facet normal -1 0 0
		outer loop
			vertex 0 9.5 0
			vertex 0 9.5 10
			vertex 0 10.5 10
		endloop
	endfacet
	facet normal 0 1 0
		outer loop
			vertex 0 10.5 0
			vertex 0 10.5 10
			vertex 10 10.5 0
		endloop
	endfacet
	facet normal 0 1 0
		outer loop
			vertex 0 10.5 10
			vertex 10 10.5 10
			vertex 10 10.5 0
		endloop
	endfacet
	facet normal 0 -1 0
		outer loop
			vertex 0 9.5 10
			vertex 0 9.5 0
			vertex 10 9.5 10
		endloop
	endfacet
	facet normal 0 -1 0
		outer loop
			vertex 0 9.5 0
			vertex 10 9.5 0
			vertex 10 9.5 10
		endloop
	endfacet
	facet normal 0 0 1
		outer loop
			vertex 0 10.5 10
			vertex 0 9.5 10
			vertex 10 10.5 10
		endloop
	endfacet
	facet normal 0 0 1
		outer loop
			vertex 0 9.5 10
			vertex 10 9.5 10
			vertex 10 10.5 10
		endloop
	endfacet
	facet normal 0 0 -1
		outer loop
			vertex 10 10.5 0
			vertex 10 9.5 0
			vertex 0 10.5 0
		endloop
	endfacet
	facet normal 0 0 -1
		outer loop
			vertex 10 9.5 0
			vertex 0 9.5 0
			vertex 0 10.5 0
		endloop
	endfacet
	facet normal 1 0 0
		outer loop
			vertex 1 10 1
			vertex 1 0 1
			vertex 1 10 0
		endloop
	endfacet
	facet normal 1 0 0
		outer loop
			vertex 1 0 1
			vertex 1 0 0
			vertex 1 10 0
		endloop
	endfacet
	facet normal -1 0 0
		outer loop
			vertex 0 10 0
			vertex 0 0 0
			vertex 0 10 1
		endloop
	endfacet
	facet normal -1 0 0
		outer loop
			vertex 0 0 0
			vertex 0 0 1
			vertex 0 10 1
		endloop
	endfacet
	facet normal 0 1 0
		outer loop
			vertex 0 10 0
			vertex 0 10 1
			vertex 1 10 0
		endloop
	endfacet
	facet normal 0 1 0
		outer loop
			vertex 0 10 1
			vertex 1 10 1
			vertex 1 10 0
		endloop
	endfacet
	facet normal 0 -1 0
		outer loop
			vertex 0 0 1
			vertex 0 0 0
			vertex 1 0 1
		endloop
	endfacet
	facet normal 0 -1 0
		outer loop
			vertex 0 0 0
			vertex 1 0 0
			vertex 1 0 1
		endloop
	endfacet
	facet normal 0 0 1
		outer loop
			vertex 0 10 1
			vertex 0 0 1
			vertex 1 10 1
		endloop
	endfacet
	facet normal 0 0 1
		outer loop
			vertex 0 0 1
			vertex 1 0 1
			vertex 1 10 1
		endloop
	endfacet
	facet normal 0 0 -1
		outer loop
			vertex 1 10 0
			vertex 1 0 0
			vertex 0 10 0
		endloop
	endfacet
	facet normal 0 0 -1
		outer loop
			vertex 1 0 0
			vertex 0 0 0
			vertex 0 10 0
		endloop
	endfacet
	facet normal 1 0 0
		outer loop
			vertex 10 10 1
			vertex 10 0 1
			vertex 10 10 0
		endloop
	endfacet
	facet normal 1 0 0
		outer loop
			vertex 10 0 1
			vertex 10 0 0
			vertex 10 10 0
		endloop
	endfacet
	facet normal -1 0 0
		outer loop
			vertex 9 10 0
			vertex 9 0 0
			vertex 9 10 1
		endloop
	endfacet
	facet normal -1 0 0
		outer loop
			vertex 9 0 0
			vertex 9 0 1
			vertex 9 10 1
		endloop
	endfacet
	facet normal 0 1 0
		outer loop
			vertex 9 10 0
			vertex 9 10 1
			vertex 10 10 0
		endloop
	endfacet
	facet normal 0 1 0
		outer loop
			vertex 9 10 1
			vertex 10 10 1
			vertex 10 10 0
		endloop
	endfacet
	facet normal 0 -1 0
		outer loop
			vertex 9 0 1
			vertex 9 0 0
			vertex 10 0 1
		endloop
	endfacet
	facet normal 0 -1 0
		outer loop
			vertex 9 0 0
			vertex 10 0 0
			vertex 10 0 1
		endloop
	endfacet
	facet normal 0 0 1
		outer loop
			vertex 9 10 1
			vertex 9 0 1
			vertex 10 10 1
		endloop
	endfacet
	facet normal 0 0 1
		outer loop
			vertex 9 0 1
			vertex 10 0 1
			vertex 10 10 1
		endloop
	endfacet
	facet normal 0 0 -1
		outer loop
			vertex 10 10 0
			vertex 10 0 0
			vertex 9 10 0
		endloop
	endfacet
	facet normal 0 0 -1
		outer loop
			vertex 10 0 0
			vertex 9 0 0
			vertex 9 10 0
		endloop
	endfacet
	facet normal 1 0 0
		outer loop
			vertex 10 10 10
			vertex 10 0 10
			vertex 10 10 9
		endloop
	endfacet
	facet normal 1 0 0
		outer loop
			vertex 10 0 10
			vertex 10 0 9
			vertex 10 10 9
		endloop
	endfacet
	facet normal -1 0 0
		outer loop
			vertex 9 10 9
			vertex 9 0 9
			vertex 9 10 10
		endloop
	endfacet
	facet normal -1 0 0
		outer loop
			vertex 9 0 9
			vertex 9 0 10
			vertex 9 10 10
		endloop
	endfacet
	facet normal 0 1 0
		outer loop
			vertex 9 10 9
			vertex 9 10 10
			vertex 10 10 9
		endloop
	endfacet
	facet normal 0 1 0
		outer loop
			vertex 9 10 10
			vertex 10 10 10
			vertex 10 10 9
		endloop
	endfacet
	facet normal 0 -1 0
		outer loop
			vertex 9 0 10
			vertex 9 0 9
			vertex 10 0 10
		endloop
	endfacet
	facet normal 0 -1 0
		outer loop
			vertex 9 0 9
			vertex 10 0 9
			vertex 10 0 10
		endloop
	endfacet
	facet normal 0 0 1
		outer loop
			vertex 9 10 10
			vertex 9 0 10
			vertex 10 10 10
		endloop
	endfacet
	facet normal 0 0 1
		outer loop
			vertex 9 0 10
			vertex 10 0 10
			vertex 10 10 10
		endloop
	endfacet
	facet normal 0 0 -1
		outer loop
			vertex 10 10 9
			vertex 10 0 9
			vertex 9 10 9
		endloop
	endfacet
	facet normal 0 0 -1
		outer loop
			vertex 10 0 9
			vertex 9 0 9
			vertex 9 10 9
		endloop
	endfacet
	facet normal 1 0 0
		outer loop
			vertex 1 10 10
			vertex 1 0 10
			vertex 1 10 9
		endloop
	endfacet
	facet normal 1 0 0
		outer loop
			vertex 1 0 10
			vertex 1 0 9
			vertex 1 10 9
		endloop
	endfacet
	facet normal -1 0 0
		outer loop
			vertex 0 10 9
			vertex 0 0 9
			vertex 0 10 10
		endloop
	endfacet
	facet normal -1 0 0
		outer loop
			vertex 0 0 9
			vertex 0 0 10
			vertex 0 10 10
		endloop
	endfacet
	facet normal 0 1 0
		outer loop
			vertex 0 10 9
			vertex 0 10 10
			vertex 1 10 9
		endloop
	endfacet
	facet normal 0 1 0
		outer loop
			vertex 0 10 10
			vertex 1 10 10
			vertex 1 10 9
		endloop
	endfacet
	facet normal 0 -1 0
		outer loop
			vertex 0 0 10
			vertex 0 0 9
			vertex 1 0 10
		endloop
	endfacet
	facet normal 0 -1 0
		outer loop
			vertex 0 0 9
			vertex 1 0 9
			vertex 1 0 10
		endloop
	endfacet
	facet normal 0 0 1
		outer loop
			vertex 0 10 10
			vertex 0 0 10
			vertex 1 10 10
		endloop
	endfacet
	facet normal 0 0 1
		outer loop
			vertex 0 0 10
			vertex 1 0 10
			vertex 1 10 10
		endloop
	endfacet
	facet normal 0 0 -1
		outer loop
			vertex 1 10 9
			vertex 1 0 9
			vertex 0 10 9
		endloop
	endfacet
	facet normal 0 0 -1
		outer loop
			vertex 1 0 9
			vertex 0 0 9
			vertex 0 10 9
		endloop
	endfacet
	facet normal 1 0 0
		outer loop
			vertex 200 0 300
			vertex 200 -10 300
			vertex 200 0 0
		endloop
	endfacet
	facet normal 1 0 0
		outer loop
			vertex 200 -10 300
			vertex 200 -10 0
			vertex 200 0 0
		endloop
	endfacet
	facet normal -1 0 0
		outer loop
			vertex 0 0 0
			vertex 0 -10 0
			vertex 0 0 300
		endloop
	endfacet
	facet normal -1 0 0
		outer loop
			vertex 0 -10 0
			vertex 0 -10 300
			vertex 0 0 300
		endloop
	endfacet
	facet normal 0 1 0
		outer loop
			vertex 0 0 0
			vertex 0 0 300
			vertex 200 0 0
		endloop
	endfacet
	facet normal 0 1 0
		outer loop
			vertex 0 0 300
			vertex 200 0 300
			vertex 200 0 0
		endloop
	endfacet
	facet normal 0 -1 0
		outer loop
			vertex 0 -10 300
			vertex 0 -10 0
			vertex 200 -10 300
		endloop
	endfacet
	facet normal 0 -1 0
		outer loop
			vertex 0 -10 0
			vertex 200 -10 0
			vertex 200 -10 300
		endloop
	endfacet
	facet normal 0 0 1
		outer loop
			vertex 0 0 300
			vertex 0 -10 300
			vertex 200 0 300
		endloop
	endfacet
	facet normal 0 0 1
		outer loop
			vertex 0 -10 300
			vertex 200 -10 300
			vertex 200 0 300
		endloop
	endfacet
	facet normal 0 0 -1
		outer loop
			vertex 200 0 0
			vertex 200 -10 0
			vertex 0 0 0
		endloop
	endfacet
	facet normal 0 0 -1
		outer loop
			vertex 200 -10 0
			vertex 0 -10 0
			vertex 0 0 0
		endloop
	endfacet
	facet normal 1 0 0
		outer loop
			vertex 40 10.5 10
			vertex 40 9.5 10
			vertex 40 10.5 0
		endloop
	endfacet
	facet normal 1 0 0
		outer loop
			vertex 40 9.5 10
			vertex 40 9.5 0
			vertex 40 10.5 0
		endloop
	endfacet
	facet normal -1 0 0
		outer loop
			vertex 20 10.5 0
			vertex 20 9.5 0
			vertex 20 10.5 10
		endloop
	endfacet
	facet normal -1 0 0
		outer loop
			vertex 20 9.5 0
			vertex 20 9.5 10
			vertex 20 10.5 10
		endloop
	endfacet
	facet normal 0 1 0
		outer loop
			vertex 20 10.5 0
			vertex 20 10.5 10
			vertex 40 10.5 0
		endloop
	endfacet
	facet normal 0 1 0
		outer loop
			vertex 20 10.5 10
			vertex 40 10.5 10
			vertex 40 10.5 0
		endloop
	endfacet
	facet normal 0 -1 0
		outer loop
			vertex 20 9.5 10
			vertex 20 9.5 0
			vertex 40 9.5 10
		endloop
	endfacet
	facet normal 0 -1 0
		outer loop
			vertex 20 9.5 0
			vertex 40 9.5 0
			vertex 40 9.5 10
		endloop
	endfacet
	facet normal 0 0 1
		outer loop
			vertex 20 10.5 10
			vertex 20 9.5 10
			vertex 40 10.5 10
		endloop
	endfacet
	facet normal 0 0 1
		outer loop
			vertex 20 9.5 10
			vertex 40 9.5 10
			vertex 40 10.5 10
		endloop
	endfacet
	facet normal 0 0 -1
		outer loop
			vertex 40 10.5 0
			vertex 40 9.5 0
			vertex 20 10.5 0
		endloop
	endfacet
	facet normal 0 0 -1
		outer loop
			vertex 40 9.5 0
			vertex 20 9.5 0
			vertex 20 10.5 0
		endloop
	endfacet
	facet normal 1 0 0
		outer loop
			vertex 21 10 1
			vertex 21 0 1
			vertex 21 10 0
		endloop
	endfacet
	facet normal 1 0 0
		outer loop
			vertex 21 0 1
			vertex 21 0 0
			vertex 21 10 0
		endloop
	endfacet
	facet normal -1 0 0
		outer loop
			vertex 20 10 0
			vertex 20 0 0
			vertex 20 10 1
		endloop
	endfacet
	facet normal -1 0 0
		outer loop
			vertex 20 0 0
			vertex 20 0 1
			vertex 20 10 1
		endloop
	endfacet
	facet normal 0 1 0
		outer loop
			vertex 20 10 0
			vertex 20 10 1
			vertex 21 10 0
		endloop
	endfacet
	facet normal 0 1 0
		outer loop
			vertex 20 10 1
			vertex 21 10 1
			vertex 21 10 0
		endloop
	endfacet
	facet normal 0 -1 0
		outer loop
			vertex 20 0 1
			vertex 20 0 0
			vertex 21 0 1
		endloop
	endfacet
	facet normal 0 -1 0
		outer loop
			vertex 20 0 0
			vertex 21 0 0
			vertex 21 0 1
		endloop
	endfacet
	facet normal 0 0 1
		outer loop
			vertex 20 10 1
			vertex 20 0 1
			vertex 21 10 1
		endloop
	endfacet
	facet normal 0 0 1
		outer loop
			vertex 20 0 1
			vertex 21 0 1
			vertex 21 10 1
		endloop
	endfacet
	facet normal 0 0 -1
		outer loop
			vertex 21 10 0
			vertex 21 0 0
			vertex 20 10 0
		endloop
	endfacet
	facet normal 0 0 -1
		outer loop
			vertex 21 0 0
			vertex 20 0 0
			vertex 20 10 0
		endloop
	endfacet
	facet normal 1 0 0
		outer loop
			vertex 40 10 1
			vertex 40 0 1
			vertex 40 10 0
		endloop
	endfacet
	facet normal 1 0 0
		outer loop
			vertex 40 0 1
			vertex 40 0 0
			vertex 40 10 0
		endloop
	endfacet
	facet normal -1 0 0
		outer loop
			vertex 39 10 0
			vertex 39 0 0
			vertex 39 10 1
		endloop
	endfacet
	facet normal -1 0 0
		outer loop
			vertex 39 0 0
			vertex 39 0 1
			vertex 39 10 1
		endloop
	endfacet
	facet normal 0 1 0
		outer loop
			vertex 39 10 0
			vertex 39 10 1
			vertex 40 10 0
		endloop
	endfacet
	facet normal 0 1 0
		outer loop
			vertex 39 10 1
			vertex 40 10 1
			vertex 40 10 0
		endloop
	endfacet
	facet normal 0 -1 0
		outer loop
			vertex 39 0 1
			vertex 39 0 0
			vertex 40 0 1
		endloop
	endfacet
	facet normal 0 -1 0
		outer loop
			vertex 39 0 0
			vertex 40 0 0
			vertex 40 0 1
		endloop
	endfacet
	facet normal 0 0 1
		outer loop
			vertex 39 10 1
			vertex 39 0 1
			vertex 40 10 1
		endloop
	endfacet
	facet normal 0 0 1
		outer loop
			vertex 39 0 1
			vertex 40 0 1
			vertex 40 10 1
		endloop
	endfacet
	facet normal 0 0 -1
		outer loop
			vertex 40 10 0
			vertex 40 0 0
			vertex 39 10 0
		endloop
	endfacet
	facet normal 0 0 -1
		outer loop
			vertex 40 0 0
			vertex 39 0 0
			vertex 39 10 0
		endloop
	endfacet
	facet normal 1 0 0
		outer loop
			vertex 40 10 10
			vertex 40 0 10
			vertex 40 10 9
		endloop
	endfacet
	facet normal 1 0 0
		outer loop
			vertex 40 0 10
			vertex 40 0 9
			vertex 40 10 9
		endloop
	endfacet
	facet normal -1 0 0
		outer loop
			vertex 39 10 9
			vertex 39 0 9
			vertex 39 10 10
		endloop
	endfacet
	facet normal -1 0 0
		outer loop
			vertex 39 0 9
			vertex 39 0 10
			vertex 39 10 10
		endloop
	endfacet
	facet normal 0 1 0
		outer loop
			vertex 39 10 9
			vertex 39 10 10
			vertex 40 10 9
		endloop
	endfacet
	facet normal 0 1 0
		outer loop
			vertex 39 10 10
			vertex 40 10 10
			vertex 40 10 9
		endloop
	endfacet
	facet normal 0 -1 0
		outer loop
			vertex 39 0 10
			vertex 39 0 9
			vertex 40 0 10
		endloop
	endfacet
	facet normal 0 -1 0
		outer loop
			vertex 39 0 9
			vertex 40 0 9
			vertex 40 0 10
		endloop
	endfacet
	facet normal 0 0 1
		outer loop
			vertex 39 10 10
			vertex 39 0 10
			vertex 40 10 10
		endloop
	endfacet
	facet normal 0 0 1
		outer loop
			vertex 39 0 10
			vertex 40 0 10
			vertex 40 10 10
		endloop
	endfacet
	facet normal 0 0 -1
		outer loop
			vertex 40 10 9
			vertex 40 0 9
			vertex 39 10 9
		endloop
	endfacet
	facet normal 0 0 -1
		outer loop
			vertex 40 0 9
			vertex 39 0 9
			vertex 39 10 9
		endloop
	endfacet
	facet normal 1 0 0
		outer loop
			vertex 21 10 10
			vertex 21 0 10
			vertex 21 10 9
		endloop
	endfacet
	facet normal 1 0 0
		outer loop
			vertex 21 0 10
			vertex 21 0 9
			vertex 21 10 9
		endloop
	endfacet
	facet normal -1 0 0
		outer loop
			vertex 20 10 9
			vertex 20 0 9
			vertex 20 10 10
		endloop
	endfacet
	facet normal -1 0 0
		outer loop
			vertex 20 0 9
			vertex 20 0 10
			vertex 20 10 10
		endloop
	endfacet
	facet normal 0 1 0
		outer loop
			vertex 20 10 9
			vertex 20 10 10
			vertex 21 10 9
		endloop
	endfacet
	facet normal 0 1 0
		outer loop
			vertex 20 10 10
			vertex 21 10 10
			vertex 21 10 9
		endloop
	endfacet
	facet normal 0 -1 0
		outer loop
			vertex 20 0 10
			vertex 20 0 9
			vertex 21 0 10
		endloop
	endfacet
	facet normal 0 -1 0
		outer loop
			vertex 20 0 9
			vertex 21 0 9
			vertex 21 0 10
		endloop
	endfacet
	facet normal 0 0 1
		outer loop
			vertex 20 10 10
			vertex 20 0 10
			vertex 21 10 10
		endloop
	endfacet
	facet normal 0 0 1
		outer loop
			vertex 20 0 10
			vertex 21 0 10
			vertex 21 10 10
		endloop
	endfacet
	facet normal 0 0 -1
		outer loop
			vertex 21 10 9
			vertex 21 0 9
			vertex 20 10 9
		endloop
	endfacet
	facet normal 0 0 -1
		outer loop
			vertex 21 0 9
			vertex 20 0 9
			vertex 20 10 9
		endloop
	endfacet
endsolid exported
